<mxfile host="app.diagrams.net" modified="2024-04-03T17:08:20.801Z" agent="Mozilla/5.0 (Macintosh; Intel Mac OS X 10_15_7) AppleWebKit/537.36 (KHTML, like Gecko) Chrome/123.0.0.0 Safari/537.36" version="23.0.1" etag="JeBtKiYhzd9YMomwyNyU" type="github">
  <diagram name="Page-1" id="Nr1Pevwn38ZMOckXXpO4">
    <mxGraphModel>
      <root>
        <mxCell id="0" />
        <mxCell id="1" parent="0" />
      </root>
    </mxGraphModel>
  </diagram>
</mxfile>
